<?xml version="1.0" encoding="UTF-8"?>
<svg id="Capa_1" data-name="Capa 1" xmlns="http://www.w3.org/2000/svg" viewBox="0 0 1163.34 986.83">
  <defs>
    <style>
      .cls-1 {
        fill: #7a7979;
      }

      .cls-2 {
        fill: #d55b21;
      }
    </style>
  </defs>
  <g>
    <path class="cls-2" d="m234.47,761.24v7.97h-16.91v7.96h19.95v7.97h-29.7v-38.75h29.37v7.97h-19.62v6.88h16.91Z"/>
    <path class="cls-2" d="m278.69,773.76c0,7.43-5.63,12.25-15.34,12.25s-17.67-4.99-17.67-13.6h9.76c0,4.12,3.58,5.63,7.91,5.63,3.63,0,5.58-1.41,5.58-3.36,0-3.09-4.18-3.79-9.65-5.42-6.67-1.95-12.52-4.82-12.52-11.98,0-8.46,6.61-11.76,14.96-11.76,9.05,0,16.15,4.77,16.42,12.63h-9.75c-.43-2.93-2.92-4.66-6.67-4.66-2.92,0-5.2.92-5.2,3.09,0,2.38,2.44,3.14,7.32,4.5,7.32,2.01,14.85,4.39,14.85,12.69Z"/>
    <path class="cls-2" d="m297.43,754.36h-11.27v-7.97h32.25v7.97h-11.22v30.78h-9.75v-30.78Z"/>
    <path class="cls-2" d="m343.2,786.01c-11.71,0-16.21-5.2-16.21-14.85v-24.77h9.75v24.77c0,5.04,2.17,6.88,6.45,6.88s6.45-1.84,6.45-6.88v-24.77h9.75v24.77c0,9.65-4.5,14.85-16.21,14.85Z"/>
    <path class="cls-2" d="m370.74,746.39h17.18c10.79,0,17.29,6.94,17.29,19.4s-5.96,19.35-16.75,19.35h-17.72v-38.75Zm9.75,30.78h6.45c6.07,0,8.51-4.34,8.51-11.38s-2.44-11.43-8.51-11.43h-6.45v22.81Z"/>
    <path class="cls-2" d="m424.94,746.39v38.75h-9.75v-38.75h9.75Z"/>
    <path class="cls-2" d="m434.7,765.74c0-11.65,6.89-20.22,19.19-20.22s19.19,8.56,19.19,20.22-6.99,20.27-19.19,20.27-19.19-8.56-19.19-20.27Zm28.62,0c0-6.72-2.38-12.25-9.43-12.25s-9.43,5.53-9.43,12.25,2.33,12.3,9.43,12.3,9.43-5.53,9.43-12.3Z"/>
    <path class="cls-2" d="m497.11,746.39h17.18c10.79,0,17.29,6.94,17.29,19.4s-5.96,19.35-16.74,19.35h-17.72v-38.75Zm9.75,30.78h6.45c6.07,0,8.51-4.34,8.51-11.38s-2.44-11.43-8.51-11.43h-6.45v22.81Z"/>
    <path class="cls-2" d="m568.22,761.24v7.97h-16.91v7.96h19.95v7.97h-29.7v-38.75h29.37v7.97h-19.62v6.88h16.91Z"/>
    <path class="cls-2" d="m605.69,746.39v38.75h-9.75v-38.75h9.75Z"/>
    <path class="cls-2" d="m617.12,746.39h9.75l13.55,23.04h.11v-23.04h9.75v38.75h-9.75l-13.55-23.04h-.11v23.04h-9.75v-38.75Z"/>
    <path class="cls-2" d="m670.3,754.36h-11.27v-7.97h32.25v7.97h-11.22v30.78h-9.75v-30.78Z"/>
    <path class="cls-2" d="m726.66,761.24v7.97h-16.91v7.96h19.95v7.97h-29.7v-38.75h29.37v7.97h-19.62v6.88h16.91Z"/>
    <path class="cls-2" d="m740.14,746.39h18.26c8.62,0,13.82,3.96,13.82,11.27,0,5.15-3.04,8.4-7.86,9.48v.11c9.7,1.68,6.18,16.7,8.4,17.34v.54h-10.13c-1.9-1.63,1.63-13.5-6.67-13.5h-6.07v13.5h-9.75v-38.75Zm9.75,17.29h6.61c3.91,0,5.96-1.41,5.96-4.66s-2.06-4.66-5.96-4.66h-6.61v9.32Z"/>
    <path class="cls-2" d="m792.49,746.39v38.75h-9.75v-38.75h9.75Z"/>
    <path class="cls-2" d="m802.26,765.74c0-11.65,6.89-20.22,19.19-20.22s19.19,8.56,19.19,20.22-6.99,20.27-19.19,20.27-19.19-8.56-19.19-20.27Zm28.62,0c0-6.72-2.38-12.25-9.43-12.25s-9.43,5.53-9.43,12.25,2.33,12.3,9.43,12.3,9.43-5.53,9.43-12.3Z"/>
    <path class="cls-2" d="m850.44,746.39h18.26c8.62,0,13.82,3.96,13.82,11.27,0,5.15-3.04,8.4-7.86,9.48v.11c9.7,1.68,6.18,16.7,8.4,17.34v.54h-10.13c-1.9-1.63,1.63-13.5-6.67-13.5h-6.07v13.5h-9.75v-38.75Zm9.75,17.29h6.61c3.91,0,5.96-1.41,5.96-4.66s-2.06-4.66-5.96-4.66h-6.61v9.32Z"/>
    <path class="cls-2" d="m919.58,761.24v7.97h-16.91v7.96h19.95v7.97h-29.7v-38.75h29.37v7.97h-19.62v6.88h16.91Z"/>
    <path class="cls-2" d="m963.79,773.76c0,7.43-5.63,12.25-15.34,12.25s-17.67-4.99-17.67-13.6h9.76c0,4.12,3.58,5.63,7.91,5.63,3.63,0,5.58-1.41,5.58-3.36,0-3.09-4.18-3.79-9.65-5.42-6.67-1.95-12.52-4.82-12.52-11.98,0-8.46,6.61-11.76,14.96-11.76,9.05,0,16.15,4.77,16.42,12.63h-9.75c-.43-2.93-2.92-4.66-6.67-4.66-2.92,0-5.2.92-5.2,3.09,0,2.38,2.44,3.14,7.32,4.5,7.32,2.01,14.85,4.39,14.85,12.69Z"/>
  </g>
  <g>
    <path class="cls-1" d="m313,321.95l-33.73-99.07h-.53l-33.74,99.07-7.97,21.25-16.74,47.55h-24.7l70.12-189.91h26.56l69.85,189.91h-24.7l-16.73-47.55"/>
    <path class="cls-1" d="m398.44,200.83h32.67l59.5,157.77h.53l59.5-157.77h32.67v189.91h-23.9v-156.18h-.53l-57.37,156.18h-21.25l-57.37-156.18h-.53v156.18h-23.9v-189.91Z"/>
    <path class="cls-1" d="m737.17,321.95l-33.74-99.07h-.53l-33.73,99.07-7.97,21.25-16.74,47.55h-24.7l70.12-189.91h26.56l69.85,189.91h-24.7l-16.73-47.55"/>
    <path class="cls-1" d="m885.85,312.39v21.25h-71.18v-21.25h71.18Z"/>
    <path class="cls-1" d="m210.74,454.75h77.03c37.45,0,62.69,20.19,62.69,53.92,0,27.36-13.02,42.5-34,47.81v.53c42.23,8.23,26.83,82.87,36.65,86.06v1.59h-25.77c-8.23-7.97,9.83-76.76-38.25-76.76h-54.45v76.76h-23.9v-189.91Zm23.9,91.9h47.55c19.65,0,44.36-2.39,44.36-35.33s-24.7-35.33-44.36-35.33h-47.55v70.65Z"/>
    <path class="cls-1" d="m422.43,454.75v189.91h-23.9v-189.91h23.9Z"/>
    <path class="cls-1" d="m499.81,454.75v168.66h99.61v21.25h-123.51v-189.91h23.9Z"/>
    <path class="cls-1" d="m660.91,454.75v168.66h99.61v21.25h-123.51v-189.91h23.9Z"/>
    <path class="cls-1" d="m781.81,549.57c0-57.11,37.19-98.54,92.97-98.54s92.97,41.44,92.97,98.54-37.19,98.81-92.97,98.81-92.97-41.7-92.97-98.81Zm162.02,0c0-40.9-21.25-77.29-69.06-77.29s-69.06,36.39-69.06,77.29,21.25,77.56,69.06,77.56,69.06-36.66,69.06-77.56Z"/>
  </g>
</svg>