<?xml version="1.0" encoding="UTF-8"?>
<svg id="Capa_1" data-name="Capa 1" xmlns="http://www.w3.org/2000/svg" viewBox="0 0 1163.34 986.83">
  <defs>
    <style>
      .cls-1 {
        fill: #7a7979;
      }
    </style>
  </defs>
  <path class="cls-1" d="m303.38,387.09l-34.94-102.62h-.55l-34.94,102.62-8.25,22.01-17.33,49.25h-25.59l72.63-196.71h27.51l72.35,196.71h-25.59l-17.33-49.25"/>
  <path class="cls-1" d="m391.88,261.63h33.84l61.63,163.42h.55l61.63-163.42h33.84v196.71h-24.76v-161.77h-.55l-59.43,161.77h-22.01l-59.43-161.77h-.55v161.77h-24.76v-196.71Z"/>
  <path class="cls-1" d="m742.74,387.09l-34.94-102.62h-.55l-34.94,102.62-8.25,22.01-17.33,49.25h-25.59l72.63-196.71h27.51l72.35,196.71h-25.59l-17.33-49.25"/>
  <path class="cls-1" d="m896.73,377.18v22.01h-73.73v-22.01h73.73Z"/>
  <path class="cls-1" d="m197.47,524.64h79.78c38.79,0,64.93,20.91,64.93,55.85,0,28.34-13.48,44.02-35.22,49.52v.55c43.74,8.53,27.79,85.84,37.97,89.14v1.65h-26.69c-8.53-8.25,10.18-79.51-39.62-79.51h-56.4v79.51h-24.76v-196.71Zm24.76,95.19h49.25c20.36,0,45.94-2.47,45.94-36.59s-25.59-36.59-45.94-36.59h-49.25v73.18Z"/>
  <path class="cls-1" d="m416.73,524.64v196.71h-24.76v-196.71h24.76Z"/>
  <path class="cls-1" d="m496.88,524.64v174.7h103.17v22.01h-127.93v-196.71h24.76Z"/>
  <path class="cls-1" d="m663.75,524.64v174.7h103.17v22.01h-127.93v-196.71h24.76Z"/>
  <path class="cls-1" d="m788.97,622.86c0-59.15,38.52-102.07,96.29-102.07s96.29,42.92,96.29,102.07-38.52,102.35-96.29,102.35-96.29-43.19-96.29-102.35Zm167.82,0c0-42.37-22.01-80.06-71.53-80.06s-71.53,37.69-71.53,80.06,22.01,80.34,71.53,80.34,71.53-37.97,71.53-80.34Z"/>
</svg>