<?xml version="1.0" encoding="UTF-8"?>
<svg id="Capa_1" data-name="Capa 1" xmlns="http://www.w3.org/2000/svg" viewBox="0 0 1017.51 1003.03">
  <defs>
    <style>
      .cls-1 {
        fill: #d55b21;
      }
    </style>
  </defs>
  <path class="cls-1" d="m415.44,161.2l-198.15,538.79c-38.68-56.55-61.25-124.95-61.25-198.59,0-162.48,109.92-299.34,259.4-340.2Z"/>
  <path class="cls-1" d="m710.08,791.02c-57.04,39.83-126.48,63.1-201.32,63.1-69.38,0-134.07-20-188.59-54.58,217.44-62.06,174.5-430.24,151.55-498.09l-.38-1.15-18.19-53.49-29.77-87.69c23.44-5.85,47.8-9.34,72.83-10.22l13.77,41.63,39.34,118.55,74.14,223.67,32.4,100.2,54.25,158.05Z"/>
  <path class="cls-1" d="m861.47,501.41c0,74.19-22.95,143.08-62.06,199.85l-197.99-540.27c149.86,40.7,260.05,177.72,260.05,340.42Z"/>
</svg>