<?xml version="1.0" encoding="UTF-8"?>
<svg id="Capa_1" data-name="Capa 1" xmlns="http://www.w3.org/2000/svg" viewBox="0 0 2187.55 700.42">
  <defs>
    <style>
      .cls-1 {
        fill: #d0581c;
      }

      .cls-2 {
        fill: #787878;
      }
    </style>
  </defs>
  <g>
    <path class="cls-2" d="m769.14,377.59l-31.81-93.43h-.5l-31.81,93.43-7.51,20.04-15.78,44.83h-23.29l66.12-179.09h25.05l65.87,179.09h-23.29l-15.78-44.83"/>
    <path class="cls-2" d="m850.95,263.38h30.81l56.11,148.78h.5l56.11-148.78h30.81v179.09h-22.54v-147.28h-.5l-54.1,147.28h-20.04l-54.1-147.28h-.5v147.28h-22.54v-179.09Z"/>
    <path class="cls-2" d="m1171.58,377.59l-31.81-93.43h-.5l-31.81,93.43-7.51,20.04-15.78,44.83h-23.29l66.12-179.09h25.05l65.87,179.09h-23.29l-15.78-44.83"/>
    <path class="cls-2" d="m1253.38,263.38h72.64c35.32,0,59.11,19.04,59.11,50.85,0,25.8-12.27,40.08-32.06,45.08v.5c39.82,7.76,25.3,78.15,34.57,81.15v1.5h-24.3c-7.76-7.51,9.27-72.39-36.07-72.39h-51.35v72.39h-22.54v-179.09Zm22.54,86.66h44.83c18.53,0,41.83-2.25,41.83-33.31s-23.29-33.31-41.83-33.31h-44.83v66.63Z"/>
    <path class="cls-2" d="m1454.16,263.38v179.09h-22.54v-179.09h22.54Z"/>
    <path class="cls-2" d="m1528.34,263.38v159.05h93.93v20.04h-116.47v-179.09h22.54Z"/>
    <path class="cls-2" d="m1681.56,263.38v159.05h93.93v20.04h-116.47v-179.09h22.54Z"/>
    <path class="cls-2" d="m1797.11,352.79c0-53.85,35.07-92.92,87.67-92.92s87.67,39.07,87.67,92.92-35.07,93.18-87.67,93.18-87.67-39.32-87.67-93.18Zm152.79,0c0-38.57-20.04-72.89-65.12-72.89s-65.12,34.31-65.12,72.89,20.04,73.14,65.12,73.14,65.12-34.57,65.12-73.14Z"/>
  </g>
  <g>
    <path class="cls-1" d="m351.31,171.53l-104.04,282.89c-20.31-29.69-32.16-65.6-32.16-104.27,0-85.31,57.71-157.16,136.2-178.62Z"/>
    <path class="cls-1" d="m506.01,502.21c-29.95,20.91-66.41,33.13-105.7,33.13-36.43,0-70.39-10.5-99.02-28.66,114.17-32.59,91.62-225.89,79.57-261.52l-.2-.6-9.55-28.08-15.63-46.04c12.31-3.07,25.1-4.91,38.24-5.36l7.23,21.86,20.65,62.25,38.93,117.44,17.01,52.61,28.48,82.99Z"/>
    <path class="cls-1" d="m585.49,350.15c0,38.95-12.05,75.13-32.59,104.93l-103.96-283.67c78.68,21.37,136.54,93.31,136.54,178.74Z"/>
  </g>
</svg>