<?xml version="1.0" encoding="UTF-8"?>
<svg id="Capa_1" data-name="Capa 1" xmlns="http://www.w3.org/2000/svg" viewBox="0 0 1818.09 791.94">
  <defs>
    <style>
      .cls-1 {
        fill: #d0581c;
      }

      .cls-2 {
        fill: #787878;
      }
    </style>
  </defs>
  <g>
    <path class="cls-1" d="m271.44,523.71v11.62h-24.66v11.62h29.09v11.62h-43.33v-56.53h42.85v11.62h-28.62v10.04h24.66Z"/>
    <path class="cls-1" d="m347.88,541.97c0,10.83-8.22,17.87-22.37,17.87s-25.77-7.27-25.77-19.84h14.23c0,6.01,5.22,8.22,11.54,8.22,5.29,0,8.14-2.05,8.14-4.9,0-4.5-6.09-5.53-14.07-7.9-9.72-2.85-18.26-7.04-18.26-17.47,0-12.33,9.64-17.16,21.82-17.16,13.2,0,23.56,6.96,23.96,18.42h-14.23c-.64-4.27-4.27-6.8-9.73-6.8-4.27,0-7.59,1.35-7.59,4.51,0,3.48,3.56,4.58,10.67,6.56,10.68,2.93,21.66,6.4,21.66,18.5Z"/>
    <path class="cls-1" d="m387.16,513.67h-16.44v-11.62h47.04v11.62h-16.36v44.9h-14.23v-44.9Z"/>
    <path class="cls-1" d="m465.85,559.84c-17.07,0-23.64-7.59-23.64-21.66v-36.13h14.23v36.13c0,7.35,3.17,10.04,9.41,10.04s9.41-2.69,9.41-10.04v-36.13h14.23v36.13c0,14.07-6.56,21.66-23.64,21.66Z"/>
    <path class="cls-1" d="m518,502.04h25.06c15.74,0,25.22,10.12,25.22,28.3s-8.69,28.22-24.43,28.22h-25.85v-56.53Zm14.23,44.9h9.41c8.85,0,12.41-6.32,12.41-16.6s-3.56-16.68-12.41-16.68h-9.41v33.28Z"/>
    <path class="cls-1" d="m609.02,502.04v56.53h-14.23v-56.53h14.23Z"/>
    <path class="cls-1" d="m635.25,530.27c0-17,10.04-29.49,27.99-29.49s27.98,12.49,27.98,29.49-10.2,29.57-27.98,29.57-27.99-12.49-27.99-29.57Zm41.74,0c0-9.8-3.48-17.87-13.75-17.87s-13.75,8.06-13.75,17.87,3.4,17.95,13.75,17.95,13.75-8.06,13.75-17.95Z"/>
    <path class="cls-1" d="m751.18,502.04h25.06c15.74,0,25.22,10.12,25.22,28.3s-8.69,28.22-24.43,28.22h-25.85v-56.53Zm14.23,44.9h9.41c8.85,0,12.41-6.32,12.41-16.6s-3.56-16.68-12.41-16.68h-9.41v33.28Z"/>
    <path class="cls-1" d="m866.87,523.71v11.62h-24.66v11.62h29.09v11.62h-43.33v-56.53h42.85v11.62h-28.62v10.04h24.66Z"/>
    <path class="cls-1" d="m946.44,502.04v56.53h-14.23v-56.53h14.23Z"/>
    <path class="cls-1" d="m975.11,502.04h14.23l19.76,33.6h.15v-33.6h14.23v56.53h-14.23l-19.76-33.6h-.15v33.6h-14.23v-56.53Z"/>
    <path class="cls-1" d="m1064.59,513.67h-16.44v-11.62h47.04v11.62h-16.36v44.9h-14.23v-44.9Z"/>
    <path class="cls-1" d="m1158.73,523.71v11.62h-24.66v11.62h29.09v11.62h-43.33v-56.53h42.85v11.62h-28.62v10.04h24.66Z"/>
    <path class="cls-1" d="m1190.36,502.04h26.65c12.57,0,20.16,5.77,20.16,16.44,0,7.51-4.42,12.25-11.46,13.83v.16c14.15,2.45,9.01,24.35,12.25,25.3v.79h-14.78c-2.77-2.37,2.37-19.69-9.72-19.69h-8.85v19.69h-14.23v-56.53Zm14.23,25.22h9.64c5.69,0,8.69-2.05,8.69-6.8s-3-6.8-8.69-6.8h-9.64v13.6Z"/>
    <path class="cls-1" d="m1278.69,502.04v56.53h-14.23v-56.53h14.23Z"/>
    <path class="cls-1" d="m1304.92,530.27c0-17,10.04-29.49,27.99-29.49s27.99,12.49,27.99,29.49-10.2,29.57-27.99,29.57-27.99-12.49-27.99-29.57Zm41.74,0c0-9.8-3.47-17.87-13.75-17.87s-13.76,8.06-13.76,17.87,3.4,17.95,13.76,17.95,13.75-8.06,13.75-17.95Z"/>
    <path class="cls-1" d="m1387.16,502.04h26.65c12.57,0,20.16,5.77,20.16,16.44,0,7.51-4.42,12.25-11.46,13.83v.16c14.15,2.45,9.01,24.35,12.25,25.3v.79h-14.78c-2.77-2.37,2.37-19.69-9.72-19.69h-8.85v19.69h-14.23v-56.53Zm14.23,25.22h9.64c5.69,0,8.69-2.05,8.69-6.8s-3-6.8-8.69-6.8h-9.64v13.6Z"/>
    <path class="cls-1" d="m1499.97,523.71v11.62h-24.66v11.62h29.09v11.62h-43.33v-56.53h42.85v11.62h-28.62v10.04h24.66Z"/>
    <path class="cls-1" d="m1576.41,541.97c0,10.83-8.22,17.87-22.37,17.87s-25.77-7.27-25.77-19.84h14.23c0,6.01,5.22,8.22,11.54,8.22,5.29,0,8.14-2.05,8.14-4.9,0-4.5-6.09-5.53-14.07-7.9-9.72-2.85-18.26-7.04-18.26-17.47,0-12.33,9.64-17.16,21.82-17.16,13.2,0,23.56,6.96,23.96,18.42h-14.23c-.64-4.27-4.27-6.8-9.73-6.8-4.27,0-7.59,1.35-7.59,4.51,0,3.48,3.56,4.58,10.67,6.56,10.68,2.93,21.66,6.4,21.66,18.5Z"/>
  </g>
  <g>
    <path class="cls-2" d="m344.66,353.72l-32.86-96.52h-.52l-32.86,96.52-7.76,20.7-16.3,46.32h-24.07l68.31-185.02h25.88l68.06,185.02h-24.07l-16.3-46.32"/>
    <path class="cls-2" d="m429.17,235.73h31.83l57.96,153.71h.52l57.96-153.71h31.83v185.02h-23.29v-152.16h-.52l-55.89,152.16h-20.7l-55.89-152.16h-.52v152.16h-23.29v-185.02Z"/>
    <path class="cls-2" d="m760.42,353.72l-32.86-96.52h-.52l-32.86,96.52-7.76,20.7-16.3,46.32h-24.07l68.31-185.02h25.88l68.06,185.02h-24.07l-16.3-46.32"/>
    <path class="cls-2" d="m844.94,235.73h75.04c36.49,0,61.07,19.67,61.07,52.53,0,26.65-12.68,41.4-33.12,46.58v.52c41.14,8.02,26.14,80.74,35.71,83.84v1.55h-25.1c-8.02-7.76,9.57-74.78-37.26-74.78h-53.05v74.78h-23.29v-185.02Zm23.29,89.53h46.32c19.15,0,43.21-2.33,43.21-34.42s-24.07-34.42-43.21-34.42h-46.32v68.83Z"/>
    <path class="cls-2" d="m1052.37,235.73v185.02h-23.29v-185.02h23.29Z"/>
    <path class="cls-2" d="m1129.01,235.73v164.32h97.04v20.7h-120.33v-185.02h23.29Z"/>
    <path class="cls-2" d="m1287.3,235.73v164.32h97.04v20.7h-120.33v-185.02h23.29Z"/>
    <path class="cls-2" d="m1406.67,328.11c0-55.64,36.23-96,90.57-96s90.57,40.37,90.57,96-36.23,96.26-90.57,96.26-90.57-40.63-90.57-96.26Zm157.85,0c0-39.85-20.7-75.3-67.28-75.3s-67.28,35.45-67.28,75.3,20.7,75.56,67.28,75.56,67.28-35.71,67.28-75.56Z"/>
  </g>
</svg>