<?xml version="1.0" encoding="UTF-8"?>
<svg id="Capa_1" data-name="Capa 1" xmlns="http://www.w3.org/2000/svg" viewBox="0 0 1653.53 569.92">
  <defs>
    <style>
      .cls-1 {
        fill: #787878;
      }
    </style>
  </defs>
  <path class="cls-1" d="m278.28,309.73l-31.94-93.8h-.5l-31.94,93.8-7.54,20.12-15.84,45.01h-23.39l66.39-179.8h25.15l66.14,179.8h-23.39l-15.84-45.01"/>
  <path class="cls-1" d="m360.42,195.06h30.93l56.33,149.38h.5l56.33-149.38h30.93v179.8h-22.63v-147.87h-.5l-54.32,147.87h-20.12l-54.32-147.87h-.5v147.87h-22.63v-179.8Z"/>
  <path class="cls-1" d="m682.33,309.73l-31.94-93.8h-.5l-31.94,93.8-7.54,20.12-15.84,45.01h-23.39l66.39-179.8h25.15l66.14,179.8h-23.39l-15.84-45.01"/>
  <path class="cls-1" d="m764.46,195.06h72.93c35.46,0,59.35,19.11,59.35,51.05,0,25.9-12.32,40.24-32.19,45.27v.5c39.98,7.8,25.4,78.46,34.7,81.48v1.51h-24.39c-7.8-7.54,9.3-72.68-36.21-72.68h-51.55v72.68h-22.63v-179.8Zm22.63,87.01h45.01c18.61,0,42-2.26,42-33.45s-23.39-33.45-42-33.45h-45.01v66.89Z"/>
  <path class="cls-1" d="m966.05,195.06v179.8h-22.63v-179.8h22.63Z"/>
  <path class="cls-1" d="m1040.52,195.06v159.69h94.3v20.12h-116.94v-179.8h22.63Z"/>
  <path class="cls-1" d="m1194.36,195.06v159.69h94.3v20.12h-116.94v-179.8h22.63Z"/>
  <path class="cls-1" d="m1310.37,284.83c0-54.07,35.21-93.3,88.02-93.3s88.02,39.23,88.02,93.3-35.21,93.55-88.02,93.55-88.02-39.48-88.02-93.55Zm153.4,0c0-38.73-20.12-73.18-65.38-73.18s-65.38,34.45-65.38,73.18,20.12,73.43,65.38,73.43,65.38-34.7,65.38-73.43Z"/>
</svg>