<?xml version="1.0" encoding="UTF-8"?>
<svg id="Capa_1" data-name="Capa 1" xmlns="http://www.w3.org/2000/svg" viewBox="0 0 2302.89 892.68">
  <defs>
    <style>
      .cls-1 {
        fill: #d0581c;
      }

      .cls-2 {
        fill: #787878;
      }
    </style>
  </defs>
  <g>
    <path class="cls-1" d="m748.93,578.67v11.62h-24.66v11.62h29.09v11.62h-43.33v-56.53h42.85v11.62h-28.62v10.04h24.66Z"/>
    <path class="cls-1" d="m825.36,596.94c0,10.83-8.22,17.87-22.37,17.87s-25.77-7.27-25.77-19.84h14.23c0,6.01,5.22,8.22,11.54,8.22,5.29,0,8.14-2.05,8.14-4.9,0-4.5-6.09-5.53-14.07-7.9-9.72-2.85-18.26-7.04-18.26-17.47,0-12.33,9.64-17.16,21.82-17.16,13.2,0,23.56,6.96,23.96,18.42h-14.23c-.64-4.27-4.27-6.8-9.73-6.8-4.27,0-7.59,1.35-7.59,4.51,0,3.48,3.56,4.58,10.67,6.56,10.68,2.93,21.66,6.4,21.66,18.5Z"/>
    <path class="cls-1" d="m864.64,568.64h-16.44v-11.62h47.04v11.62h-16.36v44.9h-14.23v-44.9Z"/>
    <path class="cls-1" d="m943.33,614.8c-17.07,0-23.64-7.59-23.64-21.66v-36.13h14.23v36.13c0,7.35,3.17,10.04,9.41,10.04s9.41-2.69,9.41-10.04v-36.13h14.23v36.13c0,14.07-6.56,21.66-23.64,21.66Z"/>
    <path class="cls-1" d="m995.48,557.01h25.06c15.74,0,25.22,10.12,25.22,28.3s-8.69,28.22-24.43,28.22h-25.85v-56.53Zm14.23,44.9h9.41c8.85,0,12.41-6.32,12.41-16.6s-3.56-16.68-12.41-16.68h-9.41v33.28Z"/>
    <path class="cls-1" d="m1086.5,557.01v56.53h-14.23v-56.53h14.23Z"/>
    <path class="cls-1" d="m1112.73,585.24c0-17,10.04-29.49,27.99-29.49s27.98,12.49,27.98,29.49-10.2,29.57-27.98,29.57-27.99-12.49-27.99-29.57Zm41.74,0c0-9.8-3.48-17.87-13.75-17.87s-13.75,8.06-13.75,17.87,3.4,17.95,13.75,17.95,13.75-8.06,13.75-17.95Z"/>
    <path class="cls-1" d="m1228.66,557.01h25.06c15.74,0,25.22,10.12,25.22,28.3s-8.69,28.22-24.43,28.22h-25.85v-56.53Zm14.23,44.9h9.41c8.85,0,12.41-6.32,12.41-16.6s-3.56-16.68-12.41-16.68h-9.41v33.28Z"/>
    <path class="cls-1" d="m1344.35,578.67v11.62h-24.66v11.62h29.09v11.62h-43.33v-56.53h42.85v11.62h-28.62v10.04h24.66Z"/>
    <path class="cls-1" d="m1423.92,557.01v56.53h-14.23v-56.53h14.23Z"/>
    <path class="cls-1" d="m1452.59,557.01h14.23l19.76,33.6h.15v-33.6h14.23v56.53h-14.23l-19.76-33.6h-.15v33.6h-14.23v-56.53Z"/>
    <path class="cls-1" d="m1542.07,568.64h-16.44v-11.62h47.04v11.62h-16.36v44.9h-14.23v-44.9Z"/>
    <path class="cls-1" d="m1636.21,578.67v11.62h-24.66v11.62h29.09v11.62h-43.33v-56.53h42.85v11.62h-28.62v10.04h24.66Z"/>
    <path class="cls-1" d="m1667.84,557.01h26.65c12.57,0,20.16,5.77,20.16,16.44,0,7.51-4.42,12.25-11.46,13.83v.16c14.15,2.45,9.01,24.35,12.25,25.3v.79h-14.78c-2.77-2.37,2.37-19.69-9.72-19.69h-8.85v19.69h-14.23v-56.53Zm14.23,25.22h9.64c5.69,0,8.69-2.05,8.69-6.8s-3-6.8-8.69-6.8h-9.64v13.6Z"/>
    <path class="cls-1" d="m1756.17,557.01v56.53h-14.23v-56.53h14.23Z"/>
    <path class="cls-1" d="m1782.41,585.24c0-17,10.04-29.49,27.99-29.49s27.99,12.49,27.99,29.49-10.2,29.57-27.99,29.57-27.99-12.49-27.99-29.57Zm41.74,0c0-9.8-3.47-17.87-13.75-17.87s-13.76,8.06-13.76,17.87,3.4,17.95,13.76,17.95,13.75-8.06,13.75-17.95Z"/>
    <path class="cls-1" d="m1864.64,557.01h26.65c12.57,0,20.16,5.77,20.16,16.44,0,7.51-4.42,12.25-11.46,13.83v.16c14.15,2.45,9.01,24.35,12.25,25.3v.79h-14.78c-2.77-2.37,2.37-19.69-9.72-19.69h-8.85v19.69h-14.23v-56.53Zm14.23,25.22h9.64c5.69,0,8.69-2.05,8.69-6.8s-3-6.8-8.69-6.8h-9.64v13.6Z"/>
    <path class="cls-1" d="m1977.45,578.67v11.62h-24.66v11.62h29.09v11.62h-43.33v-56.53h42.85v11.62h-28.62v10.04h24.66Z"/>
    <path class="cls-1" d="m2053.89,596.94c0,10.83-8.22,17.87-22.37,17.87s-25.77-7.27-25.77-19.84h14.23c0,6.01,5.22,8.22,11.54,8.22,5.29,0,8.14-2.05,8.14-4.9,0-4.5-6.09-5.53-14.07-7.9-9.72-2.85-18.26-7.04-18.26-17.47,0-12.33,9.64-17.16,21.82-17.16,13.2,0,23.56,6.96,23.96,18.42h-14.23c-.64-4.27-4.27-6.8-9.73-6.8-4.27,0-7.59,1.35-7.59,4.51,0,3.48,3.56,4.58,10.67,6.56,10.68,2.93,21.66,6.4,21.66,18.5Z"/>
  </g>
  <g>
    <path class="cls-2" d="m816.06,401.35l-32.86-96.52h-.52l-32.86,96.52-7.76,20.7-16.3,46.32h-24.07l68.31-185.02h25.88l68.06,185.02h-24.07l-16.3-46.32"/>
    <path class="cls-2" d="m900.58,283.35h31.83l57.96,153.71h.52l57.96-153.71h31.83v185.02h-23.29v-152.16h-.52l-55.89,152.16h-20.7l-55.89-152.16h-.52v152.16h-23.29v-185.02Z"/>
    <path class="cls-2" d="m1231.83,401.35l-32.86-96.52h-.52l-32.86,96.52-7.76,20.7-16.3,46.32h-24.07l68.31-185.02h25.88l68.06,185.02h-24.07l-16.3-46.32"/>
    <path class="cls-2" d="m1316.34,283.35h75.04c36.49,0,61.07,19.67,61.07,52.53,0,26.65-12.68,41.4-33.12,46.58v.52c41.14,8.02,26.14,80.74,35.71,83.84v1.55h-25.1c-8.02-7.76,9.57-74.78-37.26-74.78h-53.05v74.78h-23.29v-185.02Zm23.29,89.53h46.32c19.15,0,43.21-2.33,43.21-34.42s-24.07-34.42-43.21-34.42h-46.32v68.83Z"/>
    <path class="cls-2" d="m1523.77,283.35v185.02h-23.29v-185.02h23.29Z"/>
    <path class="cls-2" d="m1600.41,283.35v164.32h97.04v20.7h-120.33v-185.02h23.29Z"/>
    <path class="cls-2" d="m1758.7,283.35v164.32h97.04v20.7h-120.33v-185.02h23.29Z"/>
    <path class="cls-2" d="m1878.08,375.73c0-55.64,36.23-96,90.57-96s90.57,40.37,90.57,96-36.23,96.26-90.57,96.26-90.57-40.63-90.57-96.26Zm157.85,0c0-39.85-20.7-75.3-67.28-75.3s-67.28,35.45-67.28,75.3,20.7,75.56,67.28,75.56,67.28-35.71,67.28-75.56Z"/>
  </g>
  <g>
    <path class="cls-1" d="m384.39,261.74l-107.49,292.26c-20.98-30.67-33.22-67.78-33.22-107.72,0-88.14,59.63-162.37,140.71-184.54Z"/>
    <path class="cls-1" d="m544.21,603.38c-30.94,21.6-68.61,34.23-109.21,34.23-37.64,0-72.72-10.85-102.3-29.61,117.95-33.67,94.66-233.38,82.21-270.18l-.21-.62-9.87-29.01-16.15-47.56c12.71-3.17,25.93-5.07,39.5-5.54l7.47,22.58,21.34,64.31,40.21,121.33,17.57,54.35,29.43,85.73Z"/>
    <path class="cls-1" d="m626.33,446.28c0,40.24-12.45,77.61-33.67,108.41l-107.4-293.06c81.29,22.08,141.06,96.4,141.06,184.66Z"/>
  </g>
</svg>