<?xml version="1.0" encoding="UTF-8"?>
<svg id="Capa_1" data-name="Capa 1" xmlns="http://www.w3.org/2000/svg" viewBox="0 0 1259.04 1241.13">
  <defs>
    <style>
      .cls-1 {
        fill: #7a7979;
      }

      .cls-2 {
        fill: #d55b21;
      }
    </style>
  </defs>
  <path class="cls-2" d="m452.88,880.26c-36.2-22.98-67.46-53.16-91.53-88.57l176.36-479.35c2.37-.69,4.73-1.28,7.1-1.87l26.43,77.92,16.18,47.64.39.99c20.42,60.36,58.59,388.02-134.93,443.25Z"/>
  <path class="cls-2" d="m879.37,792.77c-21.4,31.17-48.43,58.19-79.5,79.79l-48.23-140.55-28.9-89.16-65.89-199.04-35.01-105.44-12.23-36.99c3.75-.1,7.4-.2,11.14-.2,28.6,0,56.12,3.85,82.46,10.95h.1l176.06,480.64Z"/>
  <g>
    <path class="cls-1" d="m211.09,572.16l-10.51-1.98,6.78-35.95-22.36-4.22-7.91,42.04-10.41-1.96,10.23-54.29,73.66,13.88-10.04,53.26-10.4-1.96,7.72-41-19.98-3.76-6.78,35.95Z"/>
    <path class="cls-1" d="m184.56,659.01c-11.96.06-21.98-8.92-22.06-27.81-.08-18.37,9.4-32.37,26.4-33.18l.06,12.49c-9.55.67-15.82,7.21-15.76,20.64.06,11.13,5,15.41,10.78,15.38,8.93-.04,10.57-6.46,14.18-21.26,2.88-11.77,7.33-24.49,21.61-24.55,13.32-.06,20.83,10.18,20.9,26.55.07,16.48-8.46,28.48-23.89,29.6l-.06-12.48c8.71-1.2,13.3-6.67,13.26-17.06-.05-8.92-3.44-14.26-9-14.23-8.18.04-9.62,7.07-12.19,17.58-4.02,16.07-7.42,28.26-24.22,28.34Z"/>
    <path class="cls-1" d="m234.69,697.62l-4.63-23.57,10.39-2.04,11.63,59.28-10.39,2.04-4.61-23.47-63.19,12.4-2.4-12.25,63.19-12.39Z"/>
    <path class="cls-1" d="m197.09,803.33c-7.89-19.32-1.18-31.46,13.97-37.65l45.72-18.67,4.72,11.55-45.73,18.67c-10.49,4.28-13.1,11.47-8.79,22.05,4.37,10.68,11.26,13.98,21.76,9.7l45.72-18.67,4.68,11.46-45.73,18.67c-15.14,6.19-28.43,2.21-36.32-17.11Z"/>
    <path class="cls-1" d="m289.46,821.29l16.32,24.15c11.57,17.12,7.54,35.14-12.44,48.63-19.98,13.5-37.88,10.78-49.5-6.42l-16.48-24.41,62.11-41.95Zm-46.35,46.36l8.97,13.29c9.39,13.9,22.36,10.83,34.27,2.79,11.9-8.04,19.68-18.99,10.3-32.89l-8.97-13.29-44.57,30.1Z"/>
    <path class="cls-1" d="m347.74,897.59l-55.04,50.96-8.49-9.16,55.05-50.96,8.48,9.16Z"/>
    <path class="cls-1" d="m338.32,942.95c13.84-17.83,35.13-22.15,53.04-8.26,17.83,13.84,19.01,35.61,5.17,53.43-13.84,17.83-35.28,22.18-53.1,8.34-17.92-13.9-18.95-35.69-5.11-53.51Zm48.34,37.52c9.26-11.94,11.74-26.77-1.86-37.32-13.6-10.55-27.44-4.55-36.7,7.39-9.32,12.02-11.72,26.91,1.88,37.47,13.6,10.55,27.35,4.48,36.68-7.54Z"/>
    <path class="cls-1" d="m464.56,982.39l27.32,10.22c19.37,7.24,26.55,24.27,18.09,46.88-8.45,22.61-24.62,30.79-44.08,23.51l-27.63-10.33,26.3-70.28Zm-10.88,64.73l15.03,5.62c15.73,5.89,24.52-4.16,29.56-17.62,5.03-13.47,5.03-26.92-10.7-32.8l-15.04-5.62-18.86,50.43Z"/>
    <path class="cls-1" d="m585.85,1047.19l-1.71,10.57-36.14-5.85-3.64,22.49,42.27,6.83-1.69,10.46-54.6-8.82,11.98-74.07,53.56,8.66-1.69,10.46-41.23-6.67-3.25,20.1,36.15,5.85Z"/>
    <path class="cls-1" d="m662.72,1016.6l5.11,74.85-12.45.85-5.11-74.85,12.46-.85Z"/>
    <path class="cls-1" d="m686.53,1014.97l13.62-3.08,45.4,47.47.2-.05-12.47-54.94,12.18-2.76,16.59,73.15-13.51,3.06-45.46-47.24-.2.05,12.43,54.74-12.19,2.76-16.59-73.16Z"/>
    <path class="cls-1" d="m787.72,996.14l-21.93,9.79-4.32-9.67,55.15-24.63,4.32,9.67-21.83,9.75,26.27,58.78-11.39,5.09-26.26-58.78Z"/>
    <path class="cls-1" d="m889.42,960.27l6.1,8.78-30.04,20.88,12.99,18.68,35.1-24.41,6.05,8.69-45.36,31.53-42.77-61.54,44.49-30.93,6.04,8.69-34.26,23.8,11.61,16.7,30.04-20.88Z"/>
    <path class="cls-1" d="m891.16,918.96l22.32-22.92c10.76-11.05,23.35-12.7,33.11-3.19,7.52,7.32,8.15,15.4,3.65,23.02l.15.15c14.4-10.13,31.06,14.86,34.74,12.88l.53.52-9.15,9.4c-4.66.28-18.26-22.75-30.84-9.83l-12.81,13.15,20.75,20.19-8.71,8.94-53.75-52.31Zm34.05,15.71l11.77-12.1c5.34-5.48,9.85-12.22,2.03-19.83-7.75-7.54-14.43-2.92-19.78,2.56l-11.77,12.1,17.74,17.26Z"/>
    <path class="cls-1" d="m951.1,849.85l60.92,43.67-7.26,10.14-60.94-43.67,7.27-10.14Z"/>
    <path class="cls-1" d="m997.35,850.13c-20.21-9.98-28.72-29.95-18.7-50.26,9.98-20.21,31.05-25.71,51.27-15.74,20.21,9.97,28.75,30.09,18.78,50.31-10.01,20.31-31.14,25.67-51.35,15.7Zm27.04-54.82c-13.54-6.68-28.53-6.13-36.14,9.29-7.62,15.42,1.04,27.75,14.58,34.43,13.63,6.73,28.67,6.08,36.29-9.34,7.6-15.42-1.09-27.65-14.73-34.39Z"/>
    <path class="cls-1" d="m1002.04,748.99l7.83-31.03c3.79-14.95,13.85-22.68,27.08-19.34,10.17,2.58,14.76,9.25,14.69,18.11l.2.05c7.4-15.99,34.35-2.68,36.54-6.24l.7.18-3.21,12.72c-3.89,2.58-27.19-10.55-31.62,6.94l-4.49,17.8,28.07,7.1-3.06,12.11-72.73-18.39Zm37.33-3.44l4.14-16.37c1.88-7.42,2.4-15.52-8.17-18.19-10.48-2.65-13.95,4.7-15.84,12.12l-4.14,16.37,24.01,6.07Z"/>
    <path class="cls-1" d="m1052.21,625.85l10.68.55-1.88,36.58,22.75,1.17,2.2-42.76,10.58.55-2.84,55.22-74.93-3.86,2.79-54.17,10.59.54-2.15,41.71,20.33,1.05,1.88-36.58Z"/>
    <path class="cls-1" d="m1066.86,535.96c11.84-1.67,22.97,5.89,25.61,24.59,2.55,18.18-4.96,33.33-21.7,36.42l-1.74-12.36c9.38-1.95,14.7-9.27,12.84-22.57-1.55-11.01-7.04-14.58-12.76-13.78-8.83,1.24-9.6,7.81-11.17,22.97-1.27,12.05-3.98,25.25-18.11,27.22-13.19,1.86-22.01-7.29-24.28-23.49-2.29-16.32,4.56-29.36,19.68-32.54l1.74,12.36c-8.46,2.36-12.28,8.4-10.83,18.68,1.24,8.84,5.31,13.66,10.83,12.89,8.1-1.14,8.57-8.3,9.72-19.06,1.82-16.46,3.55-29,20.17-31.34Z"/>
  </g>
  <g>
    <path class="cls-1" d="m288.04,401.83c-3.37-2.31-3.96-6.27-1.76-9.48,2.13-3.1,6.04-3.99,9.41-1.69,3.47,2.37,3.97,6.27,1.84,9.38-2.2,3.21-6.02,4.15-9.49,1.78Z"/>
    <path class="cls-1" d="m342.35,319.23l7,17.38-9.59,8.3-28.26-74.7,9.91-8.58,69.84,38.66-9.59,8.3-16.19-9.4-23.13,20.04Zm13.8-25.69l-32.08-19.08-.16.14,14.25,34.52,17.98-15.58Z"/>
    <path class="cls-1" d="m376.63,219.76l14.33-7.45,45.21,41.51.18-.09-8.08-60.81,14.33-7.45,34.58,66.53-10.79,5.61-26.21-50.43-.18.09,8.62,59.57-8.84,4.6-43.79-41.29-.19.09,26.21,50.44-10.79,5.6-34.59-66.53Z"/>
    <path class="cls-1" d="m513.81,222.11l-1.64,18.67-12.32,3.05,8.73-79.4,12.72-3.15,44.71,66.16-12.32,3.04-10.16-15.73-29.72,7.36Zm23.96-16.63l-19.92-31.58-.2.06-2.98,37.25,23.1-5.72Z"/>
    <path class="cls-1" d="m588.53,149.76l31.99-.91c15.42-.44,25.61,7.15,25.99,20.79.3,10.49-4.89,16.73-13.42,19.08v.2c17.41,2.76,11.95,32.31,15.96,33.46l.02.73-13.11.38c-3.55-3.04,2.74-29.06-15.3-28.53l-18.35.51.82,28.95-12.49.35-2.12-75Zm13.48,35l16.89-.49c7.65-.21,15.59-1.91,15.27-12.82-.3-10.8-8.32-12.14-15.98-11.93l-16.89.48.7,24.76Z"/>
    <path class="cls-1" d="m699.92,154.02l-10.04,74.31-12.37-1.67,10.05-74.31,12.36,1.67Z"/>
    <path class="cls-1" d="m754.64,165.35l-18.09,61.81,35.94,10.52-2.98,10.17-47.91-14.03,21.07-71.98,11.98,3.51Z"/>
    <path class="cls-1" d="m838.49,196.56l-29.3,57.37,33.35,17.02-4.82,9.44-44.47-22.7,34.12-66.8,11.12,5.67Z"/>
    <path class="cls-1" d="m878.85,261.43c14.21-17.49,35.58-21.34,53.16-7.07,17.49,14.21,18.18,35.99,3.97,53.49-14.21,17.49-35.73,21.36-53.23,7.15-17.58-14.29-18.12-36.06-3.91-53.56Zm47.44,38.55c9.52-11.72,12.32-26.47-1.02-37.3-13.35-10.85-27.29-5.15-36.81,6.56-9.59,11.8-12.31,26.62,1.04,37.47,13.35,10.83,27.22,5.08,36.8-6.72Z"/>
    <path class="cls-1" d="m959.09,384.02c3.33-2.36,7.26-1.56,9.5,1.6,2.19,3.07,1.68,7.05-1.65,9.42-3.41,2.43-7.26,1.56-9.45-1.51-2.25-3.16-1.83-7.07,1.6-9.51Z"/>
  </g>
</svg>